<svg xmlns="http://www.w3.org/2000/svg" width="447" height="447" viewBox="0 0 447 447" version="1.1">
<path d="M 86.333 141.667 C 86.700 142.033, 87.300 142.033, 87.667 141.667 C 88.033 141.300, 87.733 141, 87 141 C 86.267 141, 85.967 141.300, 86.333 141.667 M 210 159.500 C 210 160.325, 210.450 161, 211 161 C 211.550 161, 212 160.325, 212 159.500 C 212 158.675, 211.550 158, 211 158 C 210.450 158, 210 158.675, 210 159.500 M 192.070 174.125 C 192.032 180.519, 191.710 187.202, 191.355 188.976 C 190.795 191.777, 190.959 192.152, 192.605 191.820 C 193.908 191.557, 194.451 190.666, 194.344 188.969 C 194.258 187.611, 194.086 182, 193.962 176.500 C 193.636 162, 192.155 160.141, 192.070 174.125 M 210 165 C 210 165.550, 210.450 166, 211 166 C 211.550 166, 212 165.550, 212 165 C 212 164.450, 211.550 164, 211 164 C 210.450 164, 210 164.450, 210 165 M 202.752 178.214 C 203.008 181.122, 203.944 184.625, 204.831 186 C 206.265 188.220, 206.408 193.156, 206.116 230.102 C 205.783 272.348, 206.038 275.628, 209.402 272.264 C 211.689 269.978, 209.896 180, 207.563 180 C 205.559 180, 205.071 179.437, 204.813 176.827 C 204.641 175.082, 204.002 173.491, 203.393 173.291 C 202.641 173.045, 202.436 174.619, 202.752 178.214 M 99.813 211.683 C 100.534 211.972, 101.397 211.936, 101.729 211.604 C 102.061 211.272, 101.471 211.036, 100.417 211.079 C 99.252 211.127, 99.015 211.364, 99.813 211.683 M 173.098 214.382 C 171.585 216.205, 173.252 220, 175.567 220 C 178.017 220, 178.449 217.004, 176.307 214.862 C 174.580 213.135, 174.182 213.076, 173.098 214.382 M 323.500 220 C 323.856 220.576, 328.442 220.943, 334.309 220.866 C 343.078 220.751, 343.802 220.624, 339.500 219.954 C 332.039 218.792, 322.770 218.819, 323.500 220 M 113.750 220.706 C 114.987 220.944, 117.013 220.944, 118.250 220.706 C 119.487 220.467, 118.475 220.272, 116 220.272 C 113.525 220.272, 112.513 220.467, 113.750 220.706 M 179.688 223.646 C 178.147 225.186, 179.040 228, 181.070 228 C 182.625 228, 183.060 227.461, 182.820 225.828 C 182.488 223.573, 180.880 222.453, 179.688 223.646 M 134.333 228.667 C 134.700 229.033, 135.300 229.033, 135.667 228.667 C 136.033 228.300, 135.733 228, 135 228 C 134.267 228, 133.967 228.300, 134.333 228.667 M 189.806 232.526 C 188.553 235.276, 190.331 238.471, 192.625 237.591 C 193.630 237.205, 193.994 239.312, 194.214 246.795 C 194.478 255.738, 194.657 256.500, 196.500 256.500 C 197.821 256.500, 198.340 255.990, 198.029 255 C 197.769 254.175, 197.398 249.486, 197.203 244.581 C 196.791 234.189, 192.348 226.948, 189.806 232.526 M 409.333 236.667 C 409.700 237.033, 410.300 237.033, 410.667 236.667 C 411.033 236.300, 410.733 236, 410 236 C 409.267 236, 408.967 236.300, 409.333 236.667 M 133.762 238.707 C 135.006 238.946, 136.806 238.937, 137.762 238.687 C 138.718 238.437, 137.700 238.241, 135.500 238.252 C 133.300 238.263, 132.518 238.468, 133.762 238.707 M 332.813 238.683 C 333.534 238.972, 334.397 238.936, 334.729 238.604 C 335.061 238.272, 334.471 238.036, 333.417 238.079 C 332.252 238.127, 332.015 238.364, 332.813 238.683 M 379 264.393 C 379 264.609, 379.675 265.045, 380.500 265.362 C 381.325 265.678, 382 265.501, 382 264.969 C 382 264.436, 381.325 264, 380.500 264 C 379.675 264, 379 264.177, 379 264.393" stroke="none" fill="#fb586e" fill-rule="evenodd"/><path d="M 207 73.340 C 178.552 79.913, 171.563 87.438, 154.833 129.500 C 141.674 162.584, 139.130 169.281, 137.814 174.307 C 136.643 178.776, 136.341 179.104, 133.527 178.956 C 129.035 178.721, 128.339 178.926, 130 180 C 130.825 180.533, 132.565 180.976, 133.867 180.985 C 135.936 180.998, 136.152 181.346, 135.589 183.750 C 133.777 191.487, 133.500 194.536, 133.500 206.725 C 133.500 217.633, 133.237 220.022, 132 220.359 C 131.166 220.587, 131.498 220.819, 132.750 220.884 C 134.246 220.961, 135 221.631, 135 222.884 C 135 231.133, 148.686 248.936, 171.820 270.783 C 188.057 286.116, 191.408 290.802, 199.454 309.435 C 206.760 326.355, 207.351 326.197, 201.438 308.906 C 195.902 292.719, 187.781 276.692, 183.610 273.722 L 180.628 271.599 183.644 276.049 C 187.892 282.318, 188.238 283, 187.179 283 C 186.663 283, 184.444 280.637, 182.248 277.750 C 180.052 274.863, 172.413 266.650, 165.271 259.500 C 143.280 237.485, 138.481 228.241, 138.531 208 C 138.624 170.727, 163.611 138.624, 199.177 130.084 C 212.103 126.980, 211.845 127.581, 198 132.818 C 164.889 145.346, 142.220 172.123, 139.452 201.978 C 138.940 207.500, 138.940 207.500, 140.862 200.500 C 156.415 143.861, 203.111 119.448, 258.594 138.948 C 281.994 147.173, 310 188.956, 310 215.642 C 310 229.504, 306.051 236.101, 284.476 258.278 C 276.868 266.098, 268.432 275.310, 265.730 278.748 C 263.028 282.187, 260.634 285, 260.409 285 C 259.372 285, 260.360 282.789, 265.056 274.598 C 273.010 260.727, 270.117 263.463, 261.241 278.206 C 250.574 295.924, 248.851 299.520, 244.612 312.915 C 239.952 327.642, 240.082 328.816, 245.065 317 C 254.603 294.381, 256.590 291.596, 279.760 268.381 C 298.355 249.750, 305.397 241.572, 310.012 233.250 C 312.368 229, 312.368 229, 324.434 228.785 L 336.500 228.570 324.656 228.252 C 313.932 227.965, 312.876 227.772, 313.492 226.217 C 316.301 219.140, 316.237 194.271, 313.383 183.356 C 312.978 181.809, 313.398 181.129, 315.020 180.705 C 316.284 180.375, 316.913 179.669, 316.516 179.027 C 316.140 178.417, 315.012 178.179, 314.010 178.497 C 312.493 178.978, 311.814 177.937, 309.958 172.288 C 302.416 149.336, 284.664 105.268, 280.086 98.134 C 266.281 76.620, 236.510 66.520, 207 73.340 M 139 129.573 C 139 130.505, 139.680 131.015, 140.667 130.823 C 143.176 130.337, 143.520 128, 141.083 128 C 139.855 128, 139 128.646, 139 129.573 M 239 129.646 C 239.825 129.915, 244.775 131.513, 250 133.198 C 266.028 138.367, 279.089 146.292, 286.195 155.158 C 294.441 165.445, 304.500 184.364, 307.955 196.082 C 309.447 201.143, 309.863 201.837, 309.924 199.364 C 310.530 174.471, 278.767 137.708, 250.876 131.022 C 243.635 129.286, 234.722 128.254, 239 129.646 M 323 138 C 323 138.550, 323.450 139, 324 139 C 324.550 139, 325 138.550, 325 138 C 325 137.450, 324.550 137, 324 137 C 323.450 137, 323 137.450, 323 138 M 323.154 153.438 C 323.345 154.355, 323.950 155.082, 324.500 155.053 C 325.984 154.974, 325.712 152.737, 324.154 152.218 C 323.313 151.938, 322.939 152.395, 323.154 153.438 M 120 154.500 C 120 155.325, 120.675 156, 121.500 156 C 122.325 156, 123 155.325, 123 154.500 C 123 153.675, 122.325 153, 121.500 153 C 120.675 153, 120 153.675, 120 154.500 M 330 154 C 330 154.550, 330.450 155, 331 155 C 331.550 155, 332 154.550, 332 154 C 332 153.450, 331.550 153, 331 153 C 330.450 153, 330 153.450, 330 154 M 110 155 C 110 155.733, 110.300 156.033, 110.667 155.667 C 111.033 155.300, 111.033 154.700, 110.667 154.333 C 110.300 153.967, 110 154.267, 110 155 M 135.813 163.683 C 136.534 163.972, 137.397 163.936, 137.729 163.604 C 138.061 163.272, 137.471 163.036, 136.417 163.079 C 135.252 163.127, 135.015 163.364, 135.813 163.683 M 79.333 175.667 C 79.700 176.033, 80.300 176.033, 80.667 175.667 C 81.033 175.300, 80.733 175, 80 175 C 79.267 175, 78.967 175.300, 79.333 175.667 M 250 176.059 C 250 176.641, 250.450 176.840, 251 176.500 C 251.550 176.160, 252 175.684, 252 175.441 C 252 175.198, 251.550 175, 251 175 C 250.450 175, 250 175.477, 250 176.059 M 239.333 176.667 C 239.700 177.033, 240.300 177.033, 240.667 176.667 C 241.033 176.300, 240.733 176, 240 176 C 239.267 176, 238.967 176.300, 239.333 176.667 M 116.813 178.683 C 117.534 178.972, 118.397 178.936, 118.729 178.604 C 119.061 178.272, 118.471 178.036, 117.417 178.079 C 116.252 178.127, 116.015 178.364, 116.813 178.683 M 230.543 182.931 C 230.226 183.443, 230.425 184.144, 230.984 184.490 C 231.543 184.835, 232 184.416, 232 183.559 C 232 181.802, 231.400 181.544, 230.543 182.931 M 250 184 C 250 185.111, 250.667 186, 251.500 186 C 252.333 186, 253 185.111, 253 184 C 253 182.889, 252.333 182, 251.500 182 C 250.667 182, 250 182.889, 250 184 M 238 184.167 C 238 184.625, 238.675 185, 239.500 185 C 240.325 185, 241 184.625, 241 184.167 C 241 183.708, 240.325 183.333, 239.500 183.333 C 238.675 183.333, 238 183.708, 238 184.167 M 325 186.010 L 314.500 186.609 324.668 186.804 C 330.261 186.912, 335.610 187.297, 336.555 187.659 C 337.735 188.112, 338.132 187.897, 337.824 186.972 C 337.259 185.276, 337.533 185.296, 325 186.010 M 251.250 187.662 C 249.498 188.369, 249.687 192.666, 251.500 193.362 C 252.656 193.805, 253 193.141, 253 190.469 C 253 188.561, 252.887 187.036, 252.750 187.079 C 252.613 187.122, 251.938 187.385, 251.250 187.662 M 238 191 C 238 191.550, 238.900 192, 240 192 C 241.100 192, 242 191.550, 242 191 C 242 190.450, 241.100 190, 240 190 C 238.900 190, 238 190.450, 238 191 M 118.333 192.667 C 118.700 193.033, 119.300 193.033, 119.667 192.667 C 120.033 192.300, 119.733 192, 119 192 C 118.267 192, 117.967 192.300, 118.333 192.667 M 334.115 193.908 C 333.002 194.613, 333.129 194.999, 334.765 195.874 C 336.626 196.870, 338 195.827, 338 193.418 C 338 192.689, 335.553 192.997, 334.115 193.908 M 125.250 194.689 C 126.213 194.941, 127.787 194.941, 128.750 194.689 C 129.713 194.438, 128.925 194.232, 127 194.232 C 125.075 194.232, 124.287 194.438, 125.250 194.689 M 339.333 194.667 C 339.700 195.033, 340.300 195.033, 340.667 194.667 C 341.033 194.300, 340.733 194, 340 194 C 339.267 194, 338.967 194.300, 339.333 194.667 M 229.473 196.044 C 229.148 196.570, 229.160 197.450, 229.500 198 C 230.424 199.495, 233 199.206, 233 197.607 C 233 195.911, 230.296 194.713, 229.473 196.044 M 250 197.500 C 250 198.875, 250.540 200, 251.200 200 C 252.133 200, 252.133 200.267, 251.200 201.200 C 249.511 202.889, 249.706 206, 251.500 206 C 252.652 206, 253 204.722, 253 200.500 C 253 196.278, 252.652 195, 251.500 195 C 250.567 195, 250 195.944, 250 197.500 M 238 197.500 C 238 198.333, 238.889 199, 240 199 C 241.111 199, 242 198.333, 242 197.500 C 242 196.667, 241.111 196, 240 196 C 238.889 196, 238 196.667, 238 197.500 M 268.500 197 C 268.160 197.550, 268.610 198, 269.500 198 C 270.390 198, 270.840 197.550, 270.500 197 C 270.160 196.450, 269.710 196, 269.500 196 C 269.290 196, 268.840 196.450, 268.500 197 M 235 198 C 235 198.733, 235.300 199.033, 235.667 198.667 C 236.033 198.300, 236.033 197.700, 235.667 197.333 C 235.300 196.967, 235 197.267, 235 198 M 245.500 198 C 245.840 198.550, 246.316 199, 246.559 199 C 246.802 199, 247 198.550, 247 198 C 247 197.450, 246.523 197, 245.941 197 C 245.359 197, 245.160 197.450, 245.500 198 M 98.459 201.067 C 98.096 201.653, 98.108 202.441, 98.484 202.817 C 99.421 203.751, 107.924 203.688, 107.345 202.750 C 107.090 202.338, 105.559 202, 103.941 202 C 102.323 202, 101 201.550, 101 201 C 101 199.675, 99.292 199.719, 98.459 201.067 M 343.460 201.468 C 341.836 202.706, 341.742 203.121, 342.911 203.889 C 344.497 204.932, 348.210 203.130, 347.690 201.570 C 347.151 199.952, 345.500 199.911, 343.460 201.468 M 259.531 203.293 C 259.103 204.279, 259.034 205.367, 259.376 205.710 C 260.392 206.725, 261.211 205.299, 260.743 203.328 C 260.329 201.581, 260.275 201.580, 259.531 203.293 M 122.750 203.723 C 124.537 203.945, 127.463 203.945, 129.250 203.723 C 131.037 203.502, 129.575 203.320, 126 203.320 C 122.425 203.320, 120.963 203.502, 122.750 203.723 M 238.459 204.067 C 238.096 204.653, 238.050 205.384, 238.357 205.690 C 239.179 206.513, 242 205.229, 242 204.031 C 242 202.674, 239.303 202.701, 238.459 204.067 M 310 204 C 310 204.733, 310.300 205.033, 310.667 204.667 C 311.033 204.300, 311.033 203.700, 310.667 203.333 C 310.300 202.967, 310 203.267, 310 204 M 329.250 203.728 C 331.313 203.944, 334.688 203.944, 336.750 203.728 C 338.813 203.513, 337.125 203.336, 333 203.336 C 328.875 203.336, 327.188 203.513, 329.250 203.728 M 251.250 207.662 C 249.324 208.440, 249.557 219, 251.500 219 C 252.667 219, 253 217.667, 253 213 C 253 209.700, 252.887 207.036, 252.750 207.079 C 252.613 207.122, 251.938 207.385, 251.250 207.662 M 259 209.441 C 259 211.055, 260.416 212.250, 261.292 211.375 C 262.072 210.595, 260.997 208, 259.893 208 C 259.402 208, 259 208.648, 259 209.441 M 353.397 209.500 C 351.225 211.144, 346 211.497, 346 210 C 346 208.486, 343.054 208.803, 341.357 210.500 C 339.820 212.037, 341.463 212.625, 346 212.162 C 346.825 212.077, 349.637 211.963, 352.250 211.908 C 355.513 211.839, 357 211.387, 357 210.463 C 357 208.345, 355.465 207.935, 353.397 209.500 M 94 210.393 C 94 212.203, 96.293 213.061, 98.091 211.923 C 99.229 211.202, 99.163 211.028, 97.750 211.015 C 96.787 211.007, 96 210.550, 96 210 C 96 209.450, 95.550 209, 95 209 C 94.450 209, 94 209.627, 94 210.393 M 238 210.441 C 238 211.234, 238.359 212.104, 238.798 212.375 C 240.077 213.166, 242.323 211.332, 241.569 210.112 C 240.577 208.506, 238 208.744, 238 210.441 M 265 210 C 265 210.733, 265.300 211.033, 265.667 210.667 C 266.033 210.300, 266.033 209.700, 265.667 209.333 C 265.300 208.967, 265 209.267, 265 210 M 270.188 210.063 C 270.428 210.784, 271.216 211.572, 271.938 211.813 C 272.688 212.063, 273.063 211.688, 272.813 210.938 C 272.572 210.216, 271.784 209.428, 271.063 209.188 C 270.313 208.938, 269.938 209.313, 270.188 210.063 M 244 211 C 244 211.733, 244.300 212.033, 244.667 211.667 C 245.033 211.300, 245.033 210.700, 244.667 210.333 C 244.300 209.967, 244 210.267, 244 211 M 104.264 211.718 C 105.784 211.947, 108.034 211.941, 109.264 211.704 C 110.494 211.467, 109.250 211.279, 106.500 211.286 C 103.750 211.294, 102.744 211.488, 104.264 211.718 M 116.750 211.737 C 119.638 211.939, 124.362 211.939, 127.250 211.737 C 130.137 211.535, 127.775 211.370, 122 211.370 C 116.225 211.370, 113.862 211.535, 116.750 211.737 M 327.776 211.733 C 330.128 211.945, 333.728 211.942, 335.776 211.727 C 337.824 211.512, 335.900 211.339, 331.500 211.343 C 327.100 211.346, 325.424 211.522, 327.776 211.733 M 243 216 C 243 216.550, 243.423 217, 243.941 217 C 244.459 217, 245.160 216.550, 245.500 216 C 245.840 215.450, 245.416 215, 244.559 215 C 243.702 215, 243 215.450, 243 216 M 259 216.500 C 259 217.325, 259.177 218, 259.393 218 C 259.609 218, 260.045 217.325, 260.362 216.500 C 260.678 215.675, 260.501 215, 259.969 215 C 259.436 215, 259 215.675, 259 216.500 M 265.079 216.583 C 265.127 217.748, 265.364 217.985, 265.683 217.188 C 265.972 216.466, 265.936 215.603, 265.604 215.271 C 265.272 214.939, 265.036 215.529, 265.079 216.583 M 371.554 217.913 C 371.184 218.511, 369.671 219.046, 368.191 219.102 C 365.808 219.193, 365.900 219.300, 369 220.036 C 372.803 220.939, 375.172 219.772, 373.313 217.913 C 372.530 217.130, 372.038 217.130, 371.554 217.913 M 76.250 219.250 C 76.880 221.142, 80 221.411, 80 219.573 C 80 218.646, 79.145 218, 77.917 218 C 76.695 218, 76.005 218.517, 76.250 219.250 M 352 218.745 C 341.742 219.314, 342.135 221.051, 352.489 220.906 C 362.413 220.766, 365.571 220.127, 362.427 218.895 C 361.367 218.480, 360.050 218.196, 359.500 218.263 C 358.950 218.330, 355.575 218.547, 352 218.745 M 82.333 219.667 C 82.700 220.033, 83.300 220.033, 83.667 219.667 C 84.033 219.300, 83.733 219, 83 219 C 82.267 219, 81.967 219.300, 82.333 219.667 M 93.728 219.722 C 95.503 219.943, 98.653 219.946, 100.728 219.730 C 102.802 219.513, 101.350 219.333, 97.500 219.328 C 93.650 219.324, 91.952 219.501, 93.728 219.722 M 317 220.250 C 317 220.662, 318.650 221, 320.667 221 C 322.683 221, 323.996 220.662, 323.583 220.250 C 323.171 219.838, 321.521 219.500, 319.917 219.500 C 318.313 219.500, 317 219.838, 317 220.250 M 122.264 220.718 C 123.784 220.947, 126.034 220.941, 127.264 220.704 C 128.494 220.467, 127.250 220.279, 124.500 220.286 C 121.750 220.294, 120.744 220.488, 122.264 220.718 M 243.177 222.553 C 243.629 224.725, 245.404 224.858, 245.810 222.750 C 246.020 221.655, 245.530 221, 244.500 221 C 243.539 221, 242.988 221.647, 243.177 222.553 M 250 223 C 250 225.202, 250.124 225.273, 252.418 224.393 C 254.684 223.523, 254.373 221, 252 221 C 250.667 221, 250 221.667, 250 223 M 258.639 221.694 C 257.513 222.820, 257.954 224, 259.500 224 C 260.325 224, 261 223.577, 261 223.059 C 261 221.798, 259.438 220.895, 258.639 221.694 M 374 224.418 C 374 226.494, 375.094 229, 376 229 C 377.430 229, 378.055 225.771, 376.895 224.373 C 375.419 222.595, 374 222.617, 374 224.418 M 262.192 227.075 C 262.389 227.666, 262.978 228.150, 263.500 228.150 C 264.022 228.150, 264.611 227.666, 264.808 227.075 C 265.005 226.484, 264.417 226, 263.500 226 C 262.583 226, 261.995 226.484, 262.192 227.075 M 250 228.500 C 250 229.325, 250.825 230, 251.833 230 C 252.842 230, 253.667 229.325, 253.667 228.500 C 253.667 227.675, 252.842 227, 251.833 227 C 250.825 227, 250 227.675, 250 228.500 M 258 228.417 C 258 229.287, 258.712 230, 259.583 230 C 261.349 230, 261.042 227.847, 259.188 227.229 C 258.534 227.011, 258 227.546, 258 228.417 M 358.565 227.895 C 358.260 228.388, 358.748 229.073, 359.649 229.419 C 361.596 230.166, 362.458 229.550, 361.541 228.067 C 360.737 226.766, 359.313 226.684, 358.565 227.895 M 118.287 228.740 C 121.469 228.939, 126.419 228.937, 129.287 228.736 C 132.154 228.535, 129.550 228.372, 123.500 228.374 C 117.450 228.376, 115.104 228.541, 118.287 228.740 M 338.762 228.707 C 340.006 228.946, 341.806 228.937, 342.762 228.687 C 343.718 228.437, 342.700 228.241, 340.500 228.252 C 338.300 228.263, 337.518 228.468, 338.762 228.707 M 345 228.975 C 345 229.535, 346.383 229.687, 348.250 229.331 C 352.807 228.464, 352.952 228, 348.667 228 C 346.650 228, 345 228.439, 345 228.975 M 109.500 230 C 109.160 230.550, 109.610 231, 110.500 231 C 111.390 231, 111.840 230.550, 111.500 230 C 111.160 229.450, 110.710 229, 110.500 229 C 110.290 229, 109.840 229.450, 109.500 230 M 250 232.500 C 250 233.325, 250.675 234, 251.500 234 C 252.325 234, 253 233.325, 253 232.500 C 253 231.675, 252.325 231, 251.500 231 C 250.675 231, 250 231.675, 250 232.500 M 52 238.059 C 52 238.641, 52.450 238.840, 53 238.500 C 53.550 238.160, 54 237.684, 54 237.441 C 54 237.198, 53.550 237, 53 237 C 52.450 237, 52 237.477, 52 238.059 M 402 238 C 402 238.550, 402.450 239, 403 239 C 403.550 239, 404 238.550, 404 238 C 404 237.450, 403.550 237, 403 237 C 402.450 237, 402 237.450, 402 238 M 409.333 237.667 C 409.700 238.033, 410.300 238.033, 410.667 237.667 C 411.033 237.300, 410.733 237, 410 237 C 409.267 237, 408.967 237.300, 409.333 237.667 M 49 239 C 49 239.733, 49.300 240.033, 49.667 239.667 C 50.033 239.300, 50.033 238.700, 49.667 238.333 C 49.300 237.967, 49 238.267, 49 239 M 250.229 239.188 C 250.847 241.042, 253 241.349, 253 239.583 C 253 238.713, 252.287 238, 251.417 238 C 250.546 238, 250.011 238.534, 250.229 239.188 M 255.667 238.667 C 254.449 239.885, 254.978 242, 256.500 242 C 257.333 242, 258 241.111, 258 240 C 258 238.008, 256.934 237.399, 255.667 238.667 M 320.371 238.736 C 323.141 239.021, 324.955 239.982, 326.746 242.110 C 328.123 243.746, 329.498 244.836, 329.802 244.532 C 331.490 242.843, 324.469 238.006, 320.563 238.168 L 316.500 238.336 320.371 238.736 M 329 239.500 C 329.685 240.325, 330.565 241, 330.956 241 C 331.347 241, 331.667 240.325, 331.667 239.500 C 331.667 238.675, 330.787 238, 329.711 238 C 328.086 238, 327.966 238.254, 329 239.500 M 335.750 238.662 C 336.438 238.940, 337.563 238.940, 338.250 238.662 C 338.938 238.385, 338.375 238.158, 337 238.158 C 335.625 238.158, 335.063 238.385, 335.750 238.662 M 128.429 244.122 C 130.996 244.724, 132.711 244.689, 133.379 244.021 C 134.074 243.326, 132.819 243.032, 129.450 243.100 C 124.500 243.201, 124.500 243.201, 128.429 244.122 M 136.813 243.683 C 137.534 243.972, 138.397 243.936, 138.729 243.604 C 139.061 243.272, 138.471 243.036, 137.417 243.079 C 136.252 243.127, 136.015 243.364, 136.813 243.683 M 92.473 246.044 C 91.536 247.560, 94.076 250.324, 95.290 249.110 C 96.412 247.988, 95.539 245, 94.090 245 C 93.556 245, 92.828 245.470, 92.473 246.044 M 116.500 246.067 L 108.500 246.633 115.750 246.817 C 121.311 246.957, 123 247.336, 123 248.441 C 123 251.025, 124.759 251.043, 125.252 248.464 C 125.852 245.322, 126.090 245.387, 116.500 246.067 M 316.500 246.043 L 302.500 246.586 317.152 246.793 C 331.804 247, 331.804 247, 333.885 250.250 L 335.966 253.500 335.983 250.250 C 336.001 246.838, 355.596 244.996, 358.713 248.113 C 359.971 249.371, 362 248.493, 362 246.691 C 362 245.369, 341.432 245.076, 316.500 246.043 M 135.250 246.689 C 136.213 246.941, 137.787 246.941, 138.750 246.689 C 139.713 246.438, 138.925 246.232, 137 246.232 C 135.075 246.232, 134.287 246.438, 135.250 246.689 M 240.496 248.007 C 240.153 248.561, 240.596 249.292, 241.480 249.631 C 243.394 250.365, 244.461 249.556, 243.541 248.067 C 242.711 246.723, 241.306 246.696, 240.496 248.007 M 106 249 C 106 249.733, 106.300 250.033, 106.667 249.667 C 107.033 249.300, 107.033 248.700, 106.667 248.333 C 106.300 247.967, 106 248.267, 106 249 M 300.578 262.250 C 299.224 283.811, 298.640 286.479, 293.620 294.028 C 290.686 298.440, 289.507 301.016, 290.289 301.302 C 291.777 301.846, 285.230 309, 283.245 309 C 282.421 309, 282.179 309.494, 282.633 310.250 C 283.071 310.979, 282.598 310.874, 281.500 310 C 280.464 309.175, 279.935 309.031, 280.324 309.681 C 280.714 310.330, 280.575 311.144, 280.016 311.490 C 279.457 311.835, 279 311.615, 279 311 C 279 310.385, 278.543 310.165, 277.984 310.510 C 277.425 310.856, 277.226 311.557, 277.543 312.069 C 277.859 312.581, 277.687 313, 277.160 313 C 275.521 313, 271.922 320.794, 273.301 321.357 C 274.162 321.710, 274.078 322.146, 273 322.909 C 270.755 324.496, 272.322 324.226, 278.280 321.996 C 283.832 319.919, 289.064 313.530, 287.407 310.850 C 286.962 310.130, 287.129 309.962, 287.845 310.405 C 288.531 310.828, 289 310.480, 289 309.547 C 289 308.148, 295.241 303.546, 301.892 300.039 C 305.001 298.399, 299.995 305.646, 293.920 311.578 C 291.764 313.683, 290 315.724, 290 316.112 C 290 316.889, 306.729 311.728, 317 307.783 C 320.575 306.409, 326.008 304.974, 329.073 304.593 C 338.147 303.465, 351.922 289.161, 347.494 285.466 C 342.332 281.157, 321.033 265.639, 315.974 262.500 C 313.315 260.850, 309.219 257.587, 306.872 255.250 C 301.201 249.601, 301.385 249.396, 300.578 262.250 M 120.671 253.416 C 120.204 254.631, 120.696 254.982, 122.781 254.921 C 124.379 254.875, 124.882 254.607, 124 254.271 C 123.175 253.957, 122.225 253.280, 121.889 252.766 C 121.553 252.253, 121.005 252.545, 120.671 253.416 M 72 254.500 C 72 255.530, 72.655 256.020, 73.750 255.810 C 75.858 255.404, 75.725 253.629, 73.553 253.177 C 72.647 252.988, 72 253.539, 72 254.500 M 144.103 253.711 C 143.335 254.015, 141.461 255.684, 139.938 257.418 C 138.415 259.153, 135.893 261.231, 134.334 262.036 C 132.776 262.841, 130.746 264.175, 129.824 265 C 128.902 265.825, 125.527 268.053, 122.324 269.951 C 116.045 273.672, 109.115 278.857, 102.815 284.548 L 98.861 288.120 104.681 294.699 C 116.348 307.890, 114.399 306.653, 125.500 307.919 C 131.955 308.656, 139.489 310.416, 146.751 312.885 L 158.003 316.709 154.501 312.355 C 152.576 309.960, 149.425 306.041, 147.500 303.647 C 143.771 299.010, 142.857 296.693, 145.750 299.215 C 146.713 300.054, 149.525 301.862, 152 303.233 C 160.547 307.968, 164 310.200, 164 310.992 C 164 312.549, 167.173 312.970, 168.547 311.596 C 169.746 310.397, 169.126 309.504, 164.223 305.364 C 161.075 302.706, 159.127 301.323, 159.893 302.290 C 160.658 303.257, 161.007 304.327, 160.667 304.667 C 159.621 305.713, 157 302.875, 157 300.697 C 157 299.565, 155.177 295.841, 152.949 292.422 C 148.519 285.622, 147.057 277.816, 147.018 260.750 C 147.008 256.488, 146.662 253.036, 146.250 253.079 C 145.838 253.122, 144.872 253.407, 144.103 253.711 M 371.500 253.906 L 368.500 254.610 371.500 255.234 C 377.750 256.535, 378.500 256.510, 378.500 255 C 378.500 253.290, 375.873 252.879, 371.500 253.906 M 331 254.395 C 331 254.612, 332.800 254.962, 335 255.171 C 337.200 255.381, 339 255.203, 339 254.776 C 339 254.349, 337.200 254, 335 254 C 332.800 254, 331 254.178, 331 254.395 M 354.333 254.667 C 354.700 255.033, 355.300 255.033, 355.667 254.667 C 356.033 254.300, 355.733 254, 355 254 C 354.267 254, 353.967 254.300, 354.333 254.667 M 361.750 254.706 C 362.988 254.944, 365.012 254.944, 366.250 254.706 C 367.488 254.467, 366.475 254.272, 364 254.272 C 361.525 254.272, 360.512 254.467, 361.750 254.706 M 152.333 258.667 C 152.700 259.033, 153.300 259.033, 153.667 258.667 C 154.033 258.300, 153.733 258, 153 258 C 152.267 258, 151.967 258.300, 152.333 258.667 M 294.170 259.750 C 293.675 260.712, 293.401 262.074, 293.560 262.775 C 293.720 263.476, 293.621 263.589, 293.342 263.025 C 293.062 262.461, 292.482 262, 292.053 262 C 290.783 262, 287.787 270.839, 288.587 272.226 C 288.990 272.927, 288.968 273.182, 288.537 272.793 C 288.106 272.404, 286.233 276.450, 284.376 281.784 C 279.239 296.537, 274.965 304.413, 278.537 292.544 C 280.974 284.445, 280.108 282.943, 276.952 289.796 C 273.834 296.564, 271.703 299.324, 270.460 298.202 C 270.032 297.816, 269.962 298.282, 270.305 299.238 C 270.648 300.194, 270.607 300.900, 270.214 300.808 C 267.378 300.139, 262.794 305.229, 257.924 314.453 C 249.761 329.916, 246.393 334.693, 236.060 345.469 C 226.790 355.136, 227.433 355.274, 239 346.101 C 245.620 340.851, 246.533 339.896, 260.852 323.230 C 268.068 314.832, 274.263 306.802, 274.618 305.385 C 275.026 303.759, 275.533 303.244, 275.992 303.986 C 276.468 304.758, 278.059 303.560, 280.609 300.510 C 282.749 297.951, 286.393 293.646, 288.706 290.944 C 294.808 283.818, 295.043 283.115, 295.703 269.971 C 296.292 258.256, 295.987 256.218, 294.170 259.750 M 154.500 261 C 154.840 261.550, 155.343 262, 155.618 262 C 155.893 262, 155.840 261.550, 155.500 261 C 155.160 260.450, 154.657 260, 154.382 260 C 154.107 260, 154.160 260.450, 154.500 261 M 108.500 262 C 108.160 262.550, 108.584 263, 109.441 263 C 110.298 263, 111 262.550, 111 262 C 111 261.450, 110.577 261, 110.059 261 C 109.541 261, 108.840 261.450, 108.500 262 M 342.667 261.667 C 341.399 262.934, 342.008 264, 344 264 C 345.111 264, 346 263.333, 346 262.500 C 346 260.978, 343.885 260.449, 342.667 261.667 M 235 263 C 235 263.733, 235.300 264.033, 235.667 263.667 C 236.033 263.300, 236.033 262.700, 235.667 262.333 C 235.300 261.967, 235 262.267, 235 263 M 355.736 262.598 C 354.762 263.571, 356.099 266, 357.607 266 C 359.179 266, 359.244 265.800, 358.393 263.582 C 357.763 261.939, 356.764 261.569, 355.736 262.598 M 324.269 263.693 C 325.242 263.947, 326.592 263.930, 327.269 263.656 C 327.946 263.382, 327.150 263.175, 325.500 263.195 C 323.850 263.215, 323.296 263.439, 324.269 263.693 M 332.269 263.693 C 333.242 263.947, 334.592 263.930, 335.269 263.656 C 335.946 263.382, 335.150 263.175, 333.500 263.195 C 331.850 263.215, 331.296 263.439, 332.269 263.693 M 347.333 263.667 C 347.700 264.033, 348.300 264.033, 348.667 263.667 C 349.033 263.300, 348.733 263, 348 263 C 347.267 263, 346.967 263.300, 347.333 263.667 M 377.736 263.598 C 377.407 263.927, 377.380 264.827, 377.676 265.598 C 378.288 267.193, 381 267.521, 381 266 C 381 265.450, 380.438 264.993, 379.750 264.985 C 378.917 264.974, 379 264.646, 380 264 C 381.314 263.151, 381.304 263.029, 379.917 263.015 C 379.046 263.007, 378.064 263.269, 377.736 263.598 M 71.500 265 C 71.840 265.550, 72.316 266, 72.559 266 C 72.802 266, 73 265.550, 73 265 C 73 264.450, 72.523 264, 71.941 264 C 71.359 264, 71.160 264.450, 71.500 265 M 198.500 266 C 198.840 266.550, 199.316 267, 199.559 267 C 199.802 267, 200 266.550, 200 266 C 200 265.450, 199.523 265, 198.941 265 C 198.359 265, 198.160 265.450, 198.500 266 M 257 266 C 257 266.733, 257.300 267.033, 257.667 266.667 C 258.033 266.300, 258.033 265.700, 257.667 265.333 C 257.300 264.967, 257 265.267, 257 266 M 142 267 C 142 267.733, 142.300 268.033, 142.667 267.667 C 143.033 267.300, 143.033 266.700, 142.667 266.333 C 142.300 265.967, 142 266.267, 142 267 M 351 267 C 351 267.550, 351.450 268, 352 268 C 352.550 268, 353 267.550, 353 267 C 353 266.450, 352.550 266, 352 266 C 351.450 266, 351 266.450, 351 267 M 140.500 270 C 140.160 270.550, 140.359 271, 140.941 271 C 141.523 271, 142 270.550, 142 270 C 142 269.450, 141.802 269, 141.559 269 C 141.316 269, 140.840 269.450, 140.500 270 M 249.500 272 C 249.160 272.550, 249.148 273.430, 249.473 273.956 C 250.296 275.287, 253 274.089, 253 272.393 C 253 270.794, 250.424 270.505, 249.500 272 M 139 275 C 139 275.733, 139.300 276.033, 139.667 275.667 C 140.033 275.300, 140.033 274.700, 139.667 274.333 C 139.300 273.967, 139 274.267, 139 275 M 246.866 275.732 C 246.115 276.777, 244.684 277.936, 243.687 278.309 C 241.604 279.086, 242.259 280.932, 244.501 280.603 C 246.899 280.251, 250.391 275.991, 249.232 274.832 C 248.564 274.164, 247.777 274.464, 246.866 275.732 M 158.727 281 C 155.858 283.257, 155 283.474, 155 281.941 C 155 281.359, 155.450 281.160, 156 281.500 C 156.550 281.840, 157 281.641, 157 281.059 C 157 279.476, 155.021 279.782, 154.375 281.464 C 153.689 283.253, 165.712 298.296, 167.128 297.421 C 168.172 296.776, 172 300.624, 172 302.320 C 172 302.877, 172.251 303.082, 172.559 302.775 C 172.866 302.467, 170.552 297.330, 167.415 291.358 C 164.279 285.386, 162.014 281.749, 162.382 283.275 C 163.025 285.944, 162.981 285.982, 161.240 284.275 C 159.760 282.825, 159.664 282.258, 160.714 281.179 C 163.405 278.414, 162.158 278.302, 158.727 281 M 167.308 283.500 C 168.833 289.222, 169.591 291.300, 173.552 300.623 C 181.711 319.825, 205.316 345.985, 223 355.423 C 223.825 355.863, 219.248 351.110, 212.829 344.862 C 200.786 333.139, 197.871 329.391, 191.033 316.848 C 188.831 312.807, 187.022 310.310, 187.014 311.300 C 186.973 316.576, 177.481 304.249, 172.538 292.500 C 168.907 283.871, 166.136 279.101, 167.308 283.500 M 238.667 282.667 C 237.516 283.817, 237.938 285, 239.500 285 C 240.325 285, 241 284.325, 241 283.500 C 241 281.938, 239.817 281.516, 238.667 282.667 M 357 283 C 357 283.733, 357.300 284.033, 357.667 283.667 C 358.033 283.300, 358.033 282.700, 357.667 282.333 C 357.300 281.967, 357 282.267, 357 283 M 158 285 C 158 285.733, 158.300 286.033, 158.667 285.667 C 159.033 285.300, 159.033 284.700, 158.667 284.333 C 158.300 283.967, 158 284.267, 158 285 M 163.564 289.293 C 163.940 290.279, 164.499 290.834, 164.807 290.526 C 165.115 290.219, 164.808 289.412, 164.124 288.733 C 163.136 287.753, 163.022 287.868, 163.564 289.293 M 164 294.378 C 164 294.585, 164.685 295.324, 165.523 296.019 C 166.796 297.076, 166.943 297.014, 166.416 295.641 C 165.878 294.240, 164 293.257, 164 294.378 M 276 301 C 276 301.733, 276.300 302.033, 276.667 301.667 C 277.033 301.300, 277.033 300.700, 276.667 300.333 C 276.300 299.967, 276 300.267, 276 301 M 284.234 305.029 C 282.438 306.663, 281.341 308, 281.797 308 C 282.253 308, 283.919 306.650, 285.500 305 C 289.175 301.164, 288.466 301.180, 284.234 305.029 M 266.494 306.006 C 265.496 307.110, 264.915 308.249, 265.204 308.537 C 265.493 308.826, 266.475 307.923, 267.388 306.531 C 269.381 303.490, 268.983 303.256, 266.494 306.006 M 84.531 305.950 C 83.766 307.187, 86.151 308.321, 88.494 307.835 C 89.381 307.651, 90.096 307.050, 90.084 306.500 C 90.054 305.112, 85.338 304.645, 84.531 305.950 M 163.500 307.560 C 165.150 308.928, 166.376 310.520, 166.225 311.098 C 166.074 311.676, 166.466 311.830, 167.096 311.441 C 168.242 310.732, 163.021 304.959, 161.304 305.036 C 160.862 305.056, 161.850 306.191, 163.500 307.560 M 358 306 C 358 306.550, 358.450 307, 359 307 C 359.550 307, 360 306.550, 360 306 C 360 305.450, 359.550 305, 359 305 C 358.450 305, 358 305.450, 358 306 M 347.583 310.866 C 347.152 311.563, 347.070 312.403, 347.400 312.733 C 348.295 313.628, 349.271 312.312, 348.787 310.862 C 348.449 309.846, 348.213 309.846, 347.583 310.866 M 268.872 316.750 C 267.629 318.336, 267.664 318.371, 269.250 317.128 C 270.212 316.373, 271 315.585, 271 315.378 C 271 314.555, 270.179 315.084, 268.872 316.750 M 309.500 318 C 309.840 318.550, 310.541 319, 311.059 319 C 311.577 319, 312 318.550, 312 318 C 312 317.450, 311.298 317, 310.441 317 C 309.584 317, 309.160 317.450, 309.500 318 M 332 319 C 332 319.733, 332.300 320.033, 332.667 319.667 C 333.033 319.300, 333.033 318.700, 332.667 318.333 C 332.300 317.967, 332 318.267, 332 319 M 167.543 319.931 C 166.878 321.007, 168.835 322.498, 169.733 321.600 C 170.063 321.270, 169.782 321, 169.108 321 C 168.434 321, 168.160 320.550, 168.500 320 C 168.840 319.450, 168.893 319, 168.618 319 C 168.343 319, 167.859 319.419, 167.543 319.931 M 178.813 320.683 C 179.534 320.972, 180.397 320.936, 180.729 320.604 C 181.061 320.272, 180.471 320.036, 179.417 320.079 C 178.252 320.127, 178.015 320.364, 178.813 320.683 M 176.333 322.667 C 176.700 323.033, 177.300 323.033, 177.667 322.667 C 178.033 322.300, 177.733 322, 177 322 C 176.267 322, 175.967 322.300, 176.333 322.667 M 206 325 C 206 325.733, 206.300 326.033, 206.667 325.667 C 207.033 325.300, 207.033 324.700, 206.667 324.333 C 206.300 323.967, 206 324.267, 206 325 M 154.333 327.667 C 154.700 328.033, 155.300 328.033, 155.667 327.667 C 156.033 327.300, 155.733 327, 155 327 C 154.267 327, 153.967 327.300, 154.333 327.667 M 186.333 328.667 C 186.700 329.033, 187.300 329.033, 187.667 328.667 C 188.033 328.300, 187.733 328, 187 328 C 186.267 328, 185.967 328.300, 186.333 328.667 M 274.333 335.667 C 274.700 336.033, 275.300 336.033, 275.667 335.667 C 276.033 335.300, 275.733 335, 275 335 C 274.267 335, 273.967 335.300, 274.333 335.667 M 285 336.059 C 285 336.641, 285.450 336.840, 286 336.500 C 286.550 336.160, 287 335.684, 287 335.441 C 287 335.198, 286.550 335, 286 335 C 285.450 335, 285 335.477, 285 336.059 M 327.333 335.667 C 327.700 336.033, 328.300 336.033, 328.667 335.667 C 329.033 335.300, 328.733 335, 328 335 C 327.267 335, 326.967 335.300, 327.333 335.667 M 149.570 344.887 C 148.889 345.988, 151.438 348.229, 152.342 347.325 C 152.704 346.963, 153 346.067, 153 345.333 C 153 343.844, 150.422 343.508, 149.570 344.887 M 192.667 346.667 C 191.516 347.817, 191.938 349, 193.500 349 C 194.325 349, 195 348.325, 195 347.500 C 195 345.938, 193.817 345.516, 192.667 346.667 M 285.688 346.646 C 284.383 347.950, 285.006 349, 287.083 349 C 288.247 349, 288.992 348.476, 288.771 347.813 C 288.284 346.351, 286.614 345.719, 285.688 346.646 M 310 352 C 310 352.550, 310.450 353, 311 353 C 311.550 353, 312 352.550, 312 352 C 312 351.450, 311.550 351, 311 351 C 310.450 351, 310 351.450, 310 352 M 162 354 C 162 354.550, 162.675 355, 163.500 355 C 164.325 355, 165 354.550, 165 354 C 165 353.450, 164.325 353, 163.500 353 C 162.675 353, 162 353.450, 162 354 M 213 376.927 C 213 378.358, 213.642 379, 215.073 379 C 216.504 379, 217.043 378.461, 216.812 377.261 C 216.310 374.655, 213 374.364, 213 376.927" stroke="none" fill="#11e2cf" fill-rule="evenodd"/><path d="M 199.500 0.614 C 9.968 27.326, -67.804 248.302, 65.417 381.591 C 194.905 511.145, 422.015 435.998, 444.978 256 C 445.645 250.775, 446.597 245.719, 447.095 244.764 C 448.358 242.341, 448.264 200.044, 447 202 C 446.285 203.107, 446.026 202.452, 446.012 199.500 C 445.969 190.144, 440.384 164.915, 434.947 149.510 C 407.706 72.331, 343.124 17.885, 260.500 2.442 C 251.858 0.826, 207.436 -0.505, 199.500 0.614 M 207 73.340 C 178.552 79.913, 171.563 87.438, 154.833 129.500 C 141.674 162.584, 139.130 169.281, 137.814 174.307 C 136.643 178.776, 136.341 179.104, 133.527 178.956 C 129.035 178.721, 128.339 178.926, 130 180 C 130.825 180.533, 132.565 180.976, 133.867 180.985 C 135.936 180.998, 136.152 181.346, 135.589 183.750 C 133.777 191.487, 133.500 194.536, 133.500 206.725 C 133.500 217.633, 133.237 220.022, 132 220.359 C 131.166 220.587, 131.498 220.819, 132.750 220.884 C 133.988 220.948, 135.006 221.563, 135.014 222.250 C 135.021 222.938, 135.295 224.498, 135.622 225.717 C 136.206 227.898, 136.028 227.940, 124.858 228.278 L 113.500 228.620 125.175 228.560 C 136.849 228.500, 136.849 228.500, 138.925 232.777 C 141.561 238.209, 141.713 237.824, 136.750 238.285 C 132.500 238.679, 132.500 238.679, 137.221 238.650 C 141.676 238.622, 142.122 238.871, 145.118 243.060 C 146.865 245.502, 157.380 256.500, 168.484 267.500 C 190.457 289.266, 191.292 290.411, 200.053 310.752 C 206.788 326.388, 207.219 325.812, 201.438 308.906 C 195.902 292.719, 187.781 276.692, 183.610 273.722 L 180.628 271.599 183.644 276.049 C 187.892 282.318, 188.238 283, 187.179 283 C 186.663 283, 184.444 280.637, 182.248 277.750 C 180.052 274.863, 172.413 266.650, 165.271 259.500 C 143.280 237.485, 138.481 228.241, 138.531 208 C 138.624 170.727, 163.611 138.624, 199.177 130.084 C 212.103 126.980, 211.845 127.581, 198 132.818 C 164.889 145.346, 142.220 172.123, 139.452 201.978 C 138.940 207.500, 138.940 207.500, 140.862 200.500 C 156.415 143.861, 203.111 119.448, 258.594 138.948 C 281.994 147.173, 310 188.956, 310 215.642 C 310 229.504, 306.051 236.101, 284.476 258.278 C 276.868 266.098, 268.432 275.310, 265.730 278.748 C 263.028 282.187, 260.634 285, 260.409 285 C 259.372 285, 260.360 282.789, 265.056 274.598 C 273.010 260.727, 270.117 263.463, 261.241 278.206 C 250.574 295.924, 248.851 299.520, 244.612 312.915 C 239.952 327.642, 240.082 328.816, 245.065 317 C 254.603 294.381, 256.590 291.596, 279.760 268.381 C 298.355 249.750, 305.397 241.572, 310.012 233.250 C 312.368 229, 312.368 229, 324.434 228.785 L 336.500 228.570 324.656 228.252 C 313.932 227.965, 312.876 227.772, 313.492 226.217 C 316.301 219.140, 316.237 194.271, 313.383 183.356 C 312.978 181.809, 313.398 181.129, 315.020 180.705 C 316.284 180.375, 316.913 179.669, 316.516 179.027 C 316.140 178.417, 315.012 178.179, 314.010 178.497 C 312.493 178.978, 311.814 177.937, 309.958 172.288 C 302.416 149.336, 284.664 105.268, 280.086 98.134 C 266.281 76.620, 236.510 66.520, 207 73.340 M 139 129.573 C 139 130.505, 139.680 131.015, 140.667 130.823 C 143.176 130.337, 143.520 128, 141.083 128 C 139.855 128, 139 128.646, 139 129.573 M 239 129.646 C 239.825 129.915, 244.775 131.513, 250 133.198 C 266.028 138.367, 279.089 146.292, 286.195 155.158 C 294.441 165.445, 304.500 184.364, 307.955 196.082 C 309.447 201.143, 309.863 201.837, 309.924 199.364 C 310.530 174.471, 278.767 137.708, 250.876 131.022 C 243.635 129.286, 234.722 128.254, 239 129.646 M 323 138 C 323 138.550, 323.450 139, 324 139 C 324.550 139, 325 138.550, 325 138 C 325 137.450, 324.550 137, 324 137 C 323.450 137, 323 137.450, 323 138 M 86.333 141.667 C 86.700 142.033, 87.300 142.033, 87.667 141.667 C 88.033 141.300, 87.733 141, 87 141 C 86.267 141, 85.967 141.300, 86.333 141.667 M 323.154 153.438 C 323.345 154.355, 323.950 155.082, 324.500 155.053 C 325.984 154.974, 325.712 152.737, 324.154 152.218 C 323.313 151.938, 322.939 152.395, 323.154 153.438 M 120 154.500 C 120 155.325, 120.675 156, 121.500 156 C 122.325 156, 123 155.325, 123 154.500 C 123 153.675, 122.325 153, 121.500 153 C 120.675 153, 120 153.675, 120 154.500 M 330 154 C 330 154.550, 330.450 155, 331 155 C 331.550 155, 332 154.550, 332 154 C 332 153.450, 331.550 153, 331 153 C 330.450 153, 330 153.450, 330 154 M 110 155 C 110 155.733, 110.300 156.033, 110.667 155.667 C 111.033 155.300, 111.033 154.700, 110.667 154.333 C 110.300 153.967, 110 154.267, 110 155 M 210 159.500 C 210 160.325, 210.450 161, 211 161 C 211.550 161, 212 160.325, 212 159.500 C 212 158.675, 211.550 158, 211 158 C 210.450 158, 210 158.675, 210 159.500 M 348 163 C 348 163.733, 348.300 164.033, 348.667 163.667 C 349.033 163.300, 349.033 162.700, 348.667 162.333 C 348.300 161.967, 348 162.267, 348 163 M 135.813 163.683 C 136.534 163.972, 137.397 163.936, 137.729 163.604 C 138.061 163.272, 137.471 163.036, 136.417 163.079 C 135.252 163.127, 135.015 163.364, 135.813 163.683 M 192.070 174.125 C 192.032 180.519, 191.710 187.202, 191.355 188.976 C 190.795 191.777, 190.959 192.152, 192.605 191.820 C 193.908 191.557, 194.451 190.666, 194.344 188.969 C 194.258 187.611, 194.086 182, 193.962 176.500 C 193.636 162, 192.155 160.141, 192.070 174.125 M 210 165 C 210 165.550, 210.450 166, 211 166 C 211.550 166, 212 165.550, 212 165 C 212 164.450, 211.550 164, 211 164 C 210.450 164, 210 164.450, 210 165 M 202.752 178.214 C 203.008 181.122, 203.944 184.625, 204.831 186 C 206.265 188.220, 206.408 193.156, 206.116 230.102 C 205.783 272.348, 206.038 275.628, 209.402 272.264 C 211.689 269.978, 209.896 180, 207.563 180 C 205.559 180, 205.071 179.437, 204.813 176.827 C 204.641 175.082, 204.002 173.491, 203.393 173.291 C 202.641 173.045, 202.436 174.619, 202.752 178.214 M 79.333 175.667 C 79.700 176.033, 80.300 176.033, 80.667 175.667 C 81.033 175.300, 80.733 175, 80 175 C 79.267 175, 78.967 175.300, 79.333 175.667 M 250 176.059 C 250 176.641, 250.450 176.840, 251 176.500 C 251.550 176.160, 252 175.684, 252 175.441 C 252 175.198, 251.550 175, 251 175 C 250.450 175, 250 175.477, 250 176.059 M 239.333 176.667 C 239.700 177.033, 240.300 177.033, 240.667 176.667 C 241.033 176.300, 240.733 176, 240 176 C 239.267 176, 238.967 176.300, 239.333 176.667 M 116.813 178.683 C 117.534 178.972, 118.397 178.936, 118.729 178.604 C 119.061 178.272, 118.471 178.036, 117.417 178.079 C 116.252 178.127, 116.015 178.364, 116.813 178.683 M 230.543 182.931 C 230.226 183.443, 230.425 184.144, 230.984 184.490 C 231.543 184.835, 232 184.416, 232 183.559 C 232 181.802, 231.400 181.544, 230.543 182.931 M 250 184 C 250 185.111, 250.667 186, 251.500 186 C 252.333 186, 253 185.111, 253 184 C 253 182.889, 252.333 182, 251.500 182 C 250.667 182, 250 182.889, 250 184 M 238 184.167 C 238 184.625, 238.675 185, 239.500 185 C 240.325 185, 241 184.625, 241 184.167 C 241 183.708, 240.325 183.333, 239.500 183.333 C 238.675 183.333, 238 183.708, 238 184.167 M 325 186.010 L 314.500 186.609 324.668 186.804 C 330.261 186.912, 335.610 187.297, 336.555 187.659 C 337.735 188.112, 338.132 187.897, 337.824 186.972 C 337.259 185.276, 337.533 185.296, 325 186.010 M 251.250 187.662 C 249.498 188.369, 249.687 192.666, 251.500 193.362 C 252.656 193.805, 253 193.141, 253 190.469 C 253 188.561, 252.887 187.036, 252.750 187.079 C 252.613 187.122, 251.938 187.385, 251.250 187.662 M 238 191 C 238 191.550, 238.900 192, 240 192 C 241.100 192, 242 191.550, 242 191 C 242 190.450, 241.100 190, 240 190 C 238.900 190, 238 190.450, 238 191 M 118.333 192.667 C 118.700 193.033, 119.300 193.033, 119.667 192.667 C 120.033 192.300, 119.733 192, 119 192 C 118.267 192, 117.967 192.300, 118.333 192.667 M 334.115 193.908 C 333.002 194.613, 333.129 194.999, 334.765 195.874 C 336.626 196.870, 338 195.827, 338 193.418 C 338 192.689, 335.553 192.997, 334.115 193.908 M 125.250 194.689 C 126.213 194.941, 127.787 194.941, 128.750 194.689 C 129.713 194.438, 128.925 194.232, 127 194.232 C 125.075 194.232, 124.287 194.438, 125.250 194.689 M 339.333 194.667 C 339.700 195.033, 340.300 195.033, 340.667 194.667 C 341.033 194.300, 340.733 194, 340 194 C 339.267 194, 338.967 194.300, 339.333 194.667 M 229.473 196.044 C 229.148 196.570, 229.160 197.450, 229.500 198 C 230.424 199.495, 233 199.206, 233 197.607 C 233 195.911, 230.296 194.713, 229.473 196.044 M 250 197.500 C 250 198.875, 250.540 200, 251.200 200 C 252.133 200, 252.133 200.267, 251.200 201.200 C 249.511 202.889, 249.706 206, 251.500 206 C 252.652 206, 253 204.722, 253 200.500 C 253 196.278, 252.652 195, 251.500 195 C 250.567 195, 250 195.944, 250 197.500 M 238 197.500 C 238 198.333, 238.889 199, 240 199 C 241.111 199, 242 198.333, 242 197.500 C 242 196.667, 241.111 196, 240 196 C 238.889 196, 238 196.667, 238 197.500 M 268.500 197 C 268.160 197.550, 268.610 198, 269.500 198 C 270.390 198, 270.840 197.550, 270.500 197 C 270.160 196.450, 269.710 196, 269.500 196 C 269.290 196, 268.840 196.450, 268.500 197 M 235 198 C 235 198.733, 235.300 199.033, 235.667 198.667 C 236.033 198.300, 236.033 197.700, 235.667 197.333 C 235.300 196.967, 235 197.267, 235 198 M 245.500 198 C 245.840 198.550, 246.316 199, 246.559 199 C 246.802 199, 247 198.550, 247 198 C 247 197.450, 246.523 197, 245.941 197 C 245.359 197, 245.160 197.450, 245.500 198 M 98.459 201.067 C 98.096 201.653, 98.108 202.441, 98.484 202.817 C 99.421 203.751, 107.924 203.688, 107.345 202.750 C 107.090 202.338, 105.559 202, 103.941 202 C 102.323 202, 101 201.550, 101 201 C 101 199.675, 99.292 199.719, 98.459 201.067 M 343.460 201.468 C 341.836 202.706, 341.742 203.121, 342.911 203.889 C 344.497 204.932, 348.210 203.130, 347.690 201.570 C 347.151 199.952, 345.500 199.911, 343.460 201.468 M 0.426 223.500 C 0.427 235.600, 0.571 240.413, 0.747 234.195 C 0.923 227.977, 0.922 218.077, 0.746 212.195 C 0.569 206.313, 0.425 211.400, 0.426 223.500 M 259.531 203.293 C 259.103 204.279, 259.034 205.367, 259.376 205.710 C 260.392 206.725, 261.211 205.299, 260.743 203.328 C 260.329 201.581, 260.275 201.580, 259.531 203.293 M 122.750 203.723 C 124.537 203.945, 127.463 203.945, 129.250 203.723 C 131.037 203.502, 129.575 203.320, 126 203.320 C 122.425 203.320, 120.963 203.502, 122.750 203.723 M 238.459 204.067 C 238.096 204.653, 238.050 205.384, 238.357 205.690 C 239.179 206.513, 242 205.229, 242 204.031 C 242 202.674, 239.303 202.701, 238.459 204.067 M 310 204 C 310 204.733, 310.300 205.033, 310.667 204.667 C 311.033 204.300, 311.033 203.700, 310.667 203.333 C 310.300 202.967, 310 203.267, 310 204 M 329.250 203.728 C 331.313 203.944, 334.688 203.944, 336.750 203.728 C 338.813 203.513, 337.125 203.336, 333 203.336 C 328.875 203.336, 327.188 203.513, 329.250 203.728 M 251.250 207.662 C 249.324 208.440, 249.557 219, 251.500 219 C 252.667 219, 253 217.667, 253 213 C 253 209.700, 252.887 207.036, 252.750 207.079 C 252.613 207.122, 251.938 207.385, 251.250 207.662 M 259 209.441 C 259 211.055, 260.416 212.250, 261.292 211.375 C 262.072 210.595, 260.997 208, 259.893 208 C 259.402 208, 259 208.648, 259 209.441 M 353.397 209.500 C 351.225 211.144, 346 211.497, 346 210 C 346 208.486, 343.054 208.803, 341.357 210.500 C 339.820 212.037, 341.463 212.625, 346 212.162 C 346.825 212.077, 349.637 211.963, 352.250 211.908 C 355.513 211.839, 357 211.387, 357 210.463 C 357 208.345, 355.465 207.935, 353.397 209.500 M 94 210.393 C 94 212.471, 94.974 212.545, 114.500 211.965 L 132.500 211.430 114.250 211.215 C 102.893 211.081, 96 210.622, 96 210 C 96 209.450, 95.550 209, 95 209 C 94.450 209, 94 209.627, 94 210.393 M 238 210.441 C 238 211.234, 238.359 212.104, 238.798 212.375 C 240.077 213.166, 242.323 211.332, 241.569 210.112 C 240.577 208.506, 238 208.744, 238 210.441 M 265 210 C 265 210.733, 265.300 211.033, 265.667 210.667 C 266.033 210.300, 266.033 209.700, 265.667 209.333 C 265.300 208.967, 265 209.267, 265 210 M 270.188 210.063 C 270.428 210.784, 271.216 211.572, 271.938 211.813 C 272.688 212.063, 273.063 211.688, 272.813 210.938 C 272.572 210.216, 271.784 209.428, 271.063 209.188 C 270.313 208.938, 269.938 209.313, 270.188 210.063 M 244 211 C 244 211.733, 244.300 212.033, 244.667 211.667 C 245.033 211.300, 245.033 210.700, 244.667 210.333 C 244.300 209.967, 244 210.267, 244 211 M 322.158 213 C 322.158 214.375, 322.385 214.938, 322.662 214.250 C 322.940 213.563, 322.940 212.438, 322.662 211.750 C 322.385 211.063, 322.158 211.625, 322.158 213 M 327.776 211.733 C 330.128 211.945, 333.728 211.942, 335.776 211.727 C 337.824 211.512, 335.900 211.339, 331.500 211.343 C 327.100 211.346, 325.424 211.522, 327.776 211.733 M 173.098 214.382 C 171.585 216.205, 173.252 220, 175.567 220 C 178.017 220, 178.449 217.004, 176.307 214.862 C 174.580 213.135, 174.182 213.076, 173.098 214.382 M 243 216 C 243 216.550, 243.423 217, 243.941 217 C 244.459 217, 245.160 216.550, 245.500 216 C 245.840 215.450, 245.416 215, 244.559 215 C 243.702 215, 243 215.450, 243 216 M 259 216.500 C 259 217.325, 259.177 218, 259.393 218 C 259.609 218, 260.045 217.325, 260.362 216.500 C 260.678 215.675, 260.501 215, 259.969 215 C 259.436 215, 259 215.675, 259 216.500 M 265.079 216.583 C 265.127 217.748, 265.364 217.985, 265.683 217.188 C 265.972 216.466, 265.936 215.603, 265.604 215.271 C 265.272 214.939, 265.036 215.529, 265.079 216.583 M 371.554 217.913 C 371.184 218.511, 369.671 219.046, 368.191 219.102 C 365.808 219.193, 365.900 219.300, 369 220.036 C 372.803 220.939, 375.172 219.772, 373.313 217.913 C 372.530 217.130, 372.038 217.130, 371.554 217.913 M 76.250 219.250 C 76.880 221.142, 80 221.411, 80 219.573 C 80 218.646, 79.145 218, 77.917 218 C 76.695 218, 76.005 218.517, 76.250 219.250 M 350.500 218.978 C 346.100 219.350, 336.762 219.537, 329.750 219.394 C 322.109 219.239, 317 219.519, 317 220.093 C 317 221.141, 360.059 221.298, 362.765 220.260 C 364.425 219.623, 361.874 218.030, 359.500 218.221 C 358.950 218.266, 354.900 218.606, 350.500 218.978 M 82.333 219.667 C 82.700 220.033, 83.300 220.033, 83.667 219.667 C 84.033 219.300, 83.733 219, 83 219 C 82.267 219, 81.967 219.300, 82.333 219.667 M 93.728 219.722 C 95.503 219.943, 98.653 219.946, 100.728 219.730 C 102.802 219.513, 101.350 219.333, 97.500 219.328 C 93.650 219.324, 91.952 219.501, 93.728 219.722 M 116.280 220.736 C 118.909 220.943, 122.959 220.940, 125.280 220.731 C 127.601 220.521, 125.450 220.352, 120.500 220.355 C 115.550 220.358, 113.651 220.530, 116.280 220.736 M 243.177 222.553 C 243.629 224.725, 245.404 224.858, 245.810 222.750 C 246.020 221.655, 245.530 221, 244.500 221 C 243.539 221, 242.988 221.647, 243.177 222.553 M 250 223 C 250 225.202, 250.124 225.273, 252.418 224.393 C 254.684 223.523, 254.373 221, 252 221 C 250.667 221, 250 221.667, 250 223 M 258.639 221.694 C 257.513 222.820, 257.954 224, 259.500 224 C 260.325 224, 261 223.577, 261 223.059 C 261 221.798, 259.438 220.895, 258.639 221.694 M 179.688 223.646 C 178.147 225.186, 179.040 228, 181.070 228 C 182.625 228, 183.060 227.461, 182.820 225.828 C 182.488 223.573, 180.880 222.453, 179.688 223.646 M 374 224.418 C 374 226.494, 375.094 229, 376 229 C 377.430 229, 378.055 225.771, 376.895 224.373 C 375.419 222.595, 374 222.617, 374 224.418 M 262.192 227.075 C 262.389 227.666, 262.978 228.150, 263.500 228.150 C 264.022 228.150, 264.611 227.666, 264.808 227.075 C 265.005 226.484, 264.417 226, 263.500 226 C 262.583 226, 261.995 226.484, 262.192 227.075 M 250 228.500 C 250 229.325, 250.825 230, 251.833 230 C 252.842 230, 253.667 229.325, 253.667 228.500 C 253.667 227.675, 252.842 227, 251.833 227 C 250.825 227, 250 227.675, 250 228.500 M 258 228.417 C 258 229.287, 258.712 230, 259.583 230 C 261.349 230, 261.042 227.847, 259.188 227.229 C 258.534 227.011, 258 227.546, 258 228.417 M 358.565 227.895 C 358.260 228.388, 358.748 229.073, 359.649 229.419 C 361.596 230.166, 362.458 229.550, 361.541 228.067 C 360.737 226.766, 359.313 226.684, 358.565 227.895 M 338.762 228.707 C 340.006 228.946, 341.806 228.937, 342.762 228.687 C 343.718 228.437, 342.700 228.241, 340.500 228.252 C 338.300 228.263, 337.518 228.468, 338.762 228.707 M 345 228.937 C 345 229.456, 346.673 229.616, 348.750 229.296 C 353.943 228.494, 354.102 228, 349.167 228 C 346.875 228, 345 228.422, 345 228.937 M 109.500 230 C 109.160 230.550, 109.610 231, 110.500 231 C 111.390 231, 111.840 230.550, 111.500 230 C 111.160 229.450, 110.710 229, 110.500 229 C 110.290 229, 109.840 229.450, 109.500 230 M 189.806 232.526 C 188.553 235.276, 190.331 238.471, 192.625 237.591 C 193.630 237.205, 193.994 239.312, 194.214 246.795 C 194.478 255.738, 194.657 256.500, 196.500 256.500 C 197.821 256.500, 198.340 255.990, 198.029 255 C 197.769 254.175, 197.398 249.486, 197.203 244.581 C 196.791 234.189, 192.348 226.948, 189.806 232.526 M 250 232.500 C 250 233.325, 250.675 234, 251.500 234 C 252.325 234, 253 233.325, 253 232.500 C 253 231.675, 252.325 231, 251.500 231 C 250.675 231, 250 231.675, 250 232.500 M 409 237 C 409 237.550, 409.450 238, 410 238 C 410.550 238, 411 237.550, 411 237 C 411 236.450, 410.550 236, 410 236 C 409.450 236, 409 236.450, 409 237 M 52 238.059 C 52 238.641, 52.450 238.840, 53 238.500 C 53.550 238.160, 54 237.684, 54 237.441 C 54 237.198, 53.550 237, 53 237 C 52.450 237, 52 237.477, 52 238.059 M 327.999 238.050 C 328.001 238.913, 330.307 241, 331.259 241 C 331.731 241, 331.856 240.576, 331.536 240.059 C 331.216 239.541, 332.877 238.969, 335.227 238.787 C 339.272 238.475, 339.193 238.431, 333.749 237.978 C 330.585 237.715, 327.998 237.748, 327.999 238.050 M 402 238 C 402 238.550, 402.450 239, 403 239 C 403.550 239, 404 238.550, 404 238 C 404 237.450, 403.550 237, 403 237 C 402.450 237, 402 237.450, 402 238 M 49 239 C 49 239.733, 49.300 240.033, 49.667 239.667 C 50.033 239.300, 50.033 238.700, 49.667 238.333 C 49.300 237.967, 49 238.267, 49 239 M 250.229 239.188 C 250.847 241.042, 253 241.349, 253 239.583 C 253 238.713, 252.287 238, 251.417 238 C 250.546 238, 250.011 238.534, 250.229 239.188 M 255.667 238.667 C 254.449 239.885, 254.978 242, 256.500 242 C 257.333 242, 258 241.111, 258 240 C 258 238.008, 256.934 237.399, 255.667 238.667 M 320 238.730 C 322.169 238.984, 324.736 240.328, 326.750 242.266 C 328.538 243.985, 330 244.938, 330 244.383 C 330 241.689, 324.340 238.002, 320.445 238.160 C 316.500 238.320, 316.500 238.320, 320 238.730 M 128.429 244.122 C 130.996 244.724, 132.711 244.689, 133.379 244.021 C 134.074 243.326, 132.819 243.032, 129.450 243.100 C 124.500 243.201, 124.500 243.201, 128.429 244.122 M 136.813 243.683 C 137.534 243.972, 138.397 243.936, 138.729 243.604 C 139.061 243.272, 138.471 243.036, 137.417 243.079 C 136.252 243.127, 136.015 243.364, 136.813 243.683 M 92.473 246.044 C 91.536 247.560, 94.076 250.324, 95.290 249.110 C 96.412 247.988, 95.539 245, 94.090 245 C 93.556 245, 92.828 245.470, 92.473 246.044 M 116.500 246.067 L 108.500 246.633 115.750 246.817 C 121.311 246.957, 123 247.336, 123 248.441 C 123 251.025, 124.759 251.043, 125.252 248.464 C 125.852 245.322, 126.090 245.387, 116.500 246.067 M 316.500 246.043 L 302.500 246.586 317.152 246.793 C 331.804 247, 331.804 247, 333.885 250.250 L 335.966 253.500 335.983 250.250 C 336.001 246.838, 355.596 244.996, 358.713 248.113 C 359.971 249.371, 362 248.493, 362 246.691 C 362 245.369, 341.432 245.076, 316.500 246.043 M 135.250 246.689 C 136.213 246.941, 137.787 246.941, 138.750 246.689 C 139.713 246.438, 138.925 246.232, 137 246.232 C 135.075 246.232, 134.287 246.438, 135.250 246.689 M 240.496 248.007 C 240.153 248.561, 240.596 249.292, 241.480 249.631 C 243.394 250.365, 244.461 249.556, 243.541 248.067 C 242.711 246.723, 241.306 246.696, 240.496 248.007 M 106 249 C 106 249.733, 106.300 250.033, 106.667 249.667 C 107.033 249.300, 107.033 248.700, 106.667 248.333 C 106.300 247.967, 106 248.267, 106 249 M 300.578 262.250 C 299.224 283.811, 298.640 286.479, 293.620 294.028 C 290.686 298.440, 289.507 301.016, 290.289 301.302 C 291.777 301.846, 285.230 309, 283.245 309 C 282.421 309, 282.179 309.494, 282.633 310.250 C 283.071 310.979, 282.598 310.874, 281.500 310 C 280.464 309.175, 279.935 309.031, 280.324 309.681 C 280.714 310.330, 280.575 311.144, 280.016 311.490 C 279.457 311.835, 279 311.615, 279 311 C 279 310.385, 278.543 310.165, 277.984 310.510 C 277.425 310.856, 277.226 311.557, 277.543 312.069 C 277.859 312.581, 277.687 313, 277.160 313 C 275.521 313, 271.922 320.794, 273.301 321.357 C 274.162 321.710, 274.078 322.146, 273 322.909 C 270.755 324.496, 272.322 324.226, 278.280 321.996 C 283.832 319.919, 289.064 313.530, 287.407 310.850 C 286.962 310.130, 287.129 309.962, 287.845 310.405 C 288.531 310.828, 289 310.480, 289 309.547 C 289 308.148, 295.241 303.546, 301.892 300.039 C 305.001 298.399, 299.995 305.646, 293.920 311.578 C 291.764 313.683, 290 315.724, 290 316.112 C 290 316.889, 306.729 311.728, 317 307.783 C 320.575 306.409, 326.008 304.974, 329.073 304.593 C 338.147 303.465, 351.922 289.161, 347.494 285.466 C 342.332 281.157, 321.033 265.639, 315.974 262.500 C 313.315 260.850, 309.219 257.587, 306.872 255.250 C 301.201 249.601, 301.385 249.396, 300.578 262.250 M 120.671 253.416 C 120.204 254.631, 120.696 254.982, 122.781 254.921 C 124.379 254.875, 124.882 254.607, 124 254.271 C 123.175 253.957, 122.225 253.280, 121.889 252.766 C 121.553 252.253, 121.005 252.545, 120.671 253.416 M 72 254.500 C 72 255.530, 72.655 256.020, 73.750 255.810 C 75.858 255.404, 75.725 253.629, 73.553 253.177 C 72.647 252.988, 72 253.539, 72 254.500 M 144.103 253.711 C 143.335 254.015, 141.461 255.684, 139.938 257.418 C 138.415 259.153, 135.893 261.231, 134.334 262.036 C 132.776 262.841, 130.746 264.175, 129.824 265 C 128.902 265.825, 125.527 268.053, 122.324 269.951 C 116.045 273.672, 109.115 278.857, 102.815 284.548 L 98.861 288.120 104.681 294.699 C 116.348 307.890, 114.399 306.653, 125.500 307.919 C 131.955 308.656, 139.489 310.416, 146.751 312.885 L 158.003 316.709 154.501 312.355 C 152.576 309.960, 149.425 306.041, 147.500 303.647 C 143.771 299.010, 142.857 296.693, 145.750 299.215 C 146.713 300.054, 149.525 301.862, 152 303.233 C 160.547 307.968, 164 310.200, 164 310.992 C 164 312.549, 167.173 312.970, 168.547 311.596 C 169.746 310.397, 169.126 309.504, 164.223 305.364 C 161.075 302.706, 159.127 301.323, 159.893 302.290 C 160.658 303.257, 161.007 304.327, 160.667 304.667 C 159.621 305.713, 157 302.875, 157 300.697 C 157 299.565, 155.177 295.841, 152.949 292.422 C 148.519 285.622, 147.057 277.816, 147.018 260.750 C 147.008 256.488, 146.662 253.036, 146.250 253.079 C 145.838 253.122, 144.872 253.407, 144.103 253.711 M 371.500 253.906 L 368.500 254.610 371.500 255.234 C 377.750 256.535, 378.500 256.510, 378.500 255 C 378.500 253.290, 375.873 252.879, 371.500 253.906 M 331 254.395 C 331 254.612, 332.800 254.962, 335 255.171 C 337.200 255.381, 339 255.203, 339 254.776 C 339 254.349, 337.200 254, 335 254 C 332.800 254, 331 254.178, 331 254.395 M 354.333 254.667 C 354.700 255.033, 355.300 255.033, 355.667 254.667 C 356.033 254.300, 355.733 254, 355 254 C 354.267 254, 353.967 254.300, 354.333 254.667 M 361.750 254.706 C 362.988 254.944, 365.012 254.944, 366.250 254.706 C 367.488 254.467, 366.475 254.272, 364 254.272 C 361.525 254.272, 360.512 254.467, 361.750 254.706 M 152.333 258.667 C 152.700 259.033, 153.300 259.033, 153.667 258.667 C 154.033 258.300, 153.733 258, 153 258 C 152.267 258, 151.967 258.300, 152.333 258.667 M 294.170 259.750 C 293.675 260.712, 293.401 262.074, 293.560 262.775 C 293.720 263.476, 293.621 263.589, 293.342 263.025 C 293.062 262.461, 292.482 262, 292.053 262 C 290.783 262, 287.787 270.839, 288.587 272.226 C 288.990 272.927, 288.968 273.182, 288.537 272.793 C 288.106 272.404, 286.233 276.450, 284.376 281.784 C 279.239 296.537, 274.965 304.413, 278.537 292.544 C 280.974 284.445, 280.108 282.943, 276.952 289.796 C 273.834 296.564, 271.703 299.324, 270.460 298.202 C 270.032 297.816, 269.962 298.282, 270.305 299.238 C 270.648 300.194, 270.607 300.900, 270.214 300.808 C 267.378 300.139, 262.794 305.229, 257.924 314.453 C 249.761 329.916, 246.393 334.693, 236.060 345.469 C 226.790 355.136, 227.433 355.274, 239 346.101 C 245.620 340.851, 246.533 339.896, 260.852 323.230 C 268.068 314.832, 274.263 306.802, 274.618 305.385 C 275.026 303.759, 275.533 303.244, 275.992 303.986 C 276.468 304.758, 278.059 303.560, 280.609 300.510 C 282.749 297.951, 286.393 293.646, 288.706 290.944 C 294.808 283.818, 295.043 283.115, 295.703 269.971 C 296.292 258.256, 295.987 256.218, 294.170 259.750 M 154.500 261 C 154.840 261.550, 155.343 262, 155.618 262 C 155.893 262, 155.840 261.550, 155.500 261 C 155.160 260.450, 154.657 260, 154.382 260 C 154.107 260, 154.160 260.450, 154.500 261 M 108.500 262 C 108.160 262.550, 108.584 263, 109.441 263 C 110.298 263, 111 262.550, 111 262 C 111 261.450, 110.577 261, 110.059 261 C 109.541 261, 108.840 261.450, 108.500 262 M 342.667 261.667 C 341.399 262.934, 342.008 264, 344 264 C 345.111 264, 346 263.333, 346 262.500 C 346 260.978, 343.885 260.449, 342.667 261.667 M 235 263 C 235 263.733, 235.300 264.033, 235.667 263.667 C 236.033 263.300, 236.033 262.700, 235.667 262.333 C 235.300 261.967, 235 262.267, 235 263 M 355.736 262.598 C 354.762 263.571, 356.099 266, 357.607 266 C 359.179 266, 359.244 265.800, 358.393 263.582 C 357.763 261.939, 356.764 261.569, 355.736 262.598 M 324.269 263.693 C 325.242 263.947, 326.592 263.930, 327.269 263.656 C 327.946 263.382, 327.150 263.175, 325.500 263.195 C 323.850 263.215, 323.296 263.439, 324.269 263.693 M 332.269 263.693 C 333.242 263.947, 334.592 263.930, 335.269 263.656 C 335.946 263.382, 335.150 263.175, 333.500 263.195 C 331.850 263.215, 331.296 263.439, 332.269 263.693 M 347.333 263.667 C 347.700 264.033, 348.300 264.033, 348.667 263.667 C 349.033 263.300, 348.733 263, 348 263 C 347.267 263, 346.967 263.300, 347.333 263.667 M 377.659 263.742 C 377.369 264.212, 377.507 265.202, 377.965 265.943 C 378.979 267.584, 382.341 266.524, 381.750 264.749 C 381.250 263.247, 378.399 262.545, 377.659 263.742 M 71.500 265 C 71.840 265.550, 72.316 266, 72.559 266 C 72.802 266, 73 265.550, 73 265 C 73 264.450, 72.523 264, 71.941 264 C 71.359 264, 71.160 264.450, 71.500 265 M 198.500 266 C 198.840 266.550, 199.316 267, 199.559 267 C 199.802 267, 200 266.550, 200 266 C 200 265.450, 199.523 265, 198.941 265 C 198.359 265, 198.160 265.450, 198.500 266 M 257 266 C 257 266.733, 257.300 267.033, 257.667 266.667 C 258.033 266.300, 258.033 265.700, 257.667 265.333 C 257.300 264.967, 257 265.267, 257 266 M 142 267 C 142 267.733, 142.300 268.033, 142.667 267.667 C 143.033 267.300, 143.033 266.700, 142.667 266.333 C 142.300 265.967, 142 266.267, 142 267 M 351 267 C 351 267.550, 351.450 268, 352 268 C 352.550 268, 353 267.550, 353 267 C 353 266.450, 352.550 266, 352 266 C 351.450 266, 351 266.450, 351 267 M 140.500 270 C 140.160 270.550, 140.359 271, 140.941 271 C 141.523 271, 142 270.550, 142 270 C 142 269.450, 141.802 269, 141.559 269 C 141.316 269, 140.840 269.450, 140.500 270 M 249.500 272 C 249.160 272.550, 249.148 273.430, 249.473 273.956 C 250.296 275.287, 253 274.089, 253 272.393 C 253 270.794, 250.424 270.505, 249.500 272 M 139 275 C 139 275.733, 139.300 276.033, 139.667 275.667 C 140.033 275.300, 140.033 274.700, 139.667 274.333 C 139.300 273.967, 139 274.267, 139 275 M 246.866 275.732 C 246.115 276.777, 244.684 277.936, 243.687 278.309 C 241.604 279.086, 242.259 280.932, 244.501 280.603 C 246.899 280.251, 250.391 275.991, 249.232 274.832 C 248.564 274.164, 247.777 274.464, 246.866 275.732 M 158.727 281 C 155.858 283.257, 155 283.474, 155 281.941 C 155 281.359, 155.450 281.160, 156 281.500 C 156.550 281.840, 157 281.641, 157 281.059 C 157 279.476, 155.021 279.782, 154.375 281.464 C 153.689 283.253, 165.712 298.296, 167.128 297.421 C 168.172 296.776, 172 300.624, 172 302.320 C 172 302.877, 172.251 303.082, 172.559 302.775 C 172.866 302.467, 170.552 297.330, 167.415 291.358 C 164.279 285.386, 162.014 281.749, 162.382 283.275 C 163.025 285.944, 162.981 285.982, 161.240 284.275 C 159.760 282.825, 159.664 282.258, 160.714 281.179 C 163.405 278.414, 162.158 278.302, 158.727 281 M 167.308 283.500 C 168.833 289.222, 169.591 291.300, 173.552 300.623 C 181.711 319.825, 205.316 345.985, 223 355.423 C 223.825 355.863, 219.248 351.110, 212.829 344.862 C 200.786 333.139, 197.871 329.391, 191.033 316.848 C 188.831 312.807, 187.022 310.310, 187.014 311.300 C 186.973 316.576, 177.481 304.249, 172.538 292.500 C 168.907 283.871, 166.136 279.101, 167.308 283.500 M 238.667 282.667 C 237.516 283.817, 237.938 285, 239.500 285 C 240.325 285, 241 284.325, 241 283.500 C 241 281.938, 239.817 281.516, 238.667 282.667 M 357 283 C 357 283.733, 357.300 284.033, 357.667 283.667 C 358.033 283.300, 358.033 282.700, 357.667 282.333 C 357.300 281.967, 357 282.267, 357 283 M 158 285 C 158 285.733, 158.300 286.033, 158.667 285.667 C 159.033 285.300, 159.033 284.700, 158.667 284.333 C 158.300 283.967, 158 284.267, 158 285 M 163.564 289.293 C 163.940 290.279, 164.499 290.834, 164.807 290.526 C 165.115 290.219, 164.808 289.412, 164.124 288.733 C 163.136 287.753, 163.022 287.868, 163.564 289.293 M 164 294.378 C 164 294.585, 164.685 295.324, 165.523 296.019 C 166.796 297.076, 166.943 297.014, 166.416 295.641 C 165.878 294.240, 164 293.257, 164 294.378 M 276 301 C 276 301.733, 276.300 302.033, 276.667 301.667 C 277.033 301.300, 277.033 300.700, 276.667 300.333 C 276.300 299.967, 276 300.267, 276 301 M 284.234 305.029 C 282.438 306.663, 281.341 308, 281.797 308 C 282.253 308, 283.919 306.650, 285.500 305 C 289.175 301.164, 288.466 301.180, 284.234 305.029 M 266.494 306.006 C 265.496 307.110, 264.915 308.249, 265.204 308.537 C 265.493 308.826, 266.475 307.923, 267.388 306.531 C 269.381 303.490, 268.983 303.256, 266.494 306.006 M 84.531 305.950 C 83.766 307.187, 86.151 308.321, 88.494 307.835 C 89.381 307.651, 90.096 307.050, 90.084 306.500 C 90.054 305.112, 85.338 304.645, 84.531 305.950 M 163.500 307.560 C 165.150 308.928, 166.376 310.520, 166.225 311.098 C 166.074 311.676, 166.466 311.830, 167.096 311.441 C 168.242 310.732, 163.021 304.959, 161.304 305.036 C 160.862 305.056, 161.850 306.191, 163.500 307.560 M 358 306 C 358 306.550, 358.450 307, 359 307 C 359.550 307, 360 306.550, 360 306 C 360 305.450, 359.550 305, 359 305 C 358.450 305, 358 305.450, 358 306 M 368 308 C 368 308.733, 368.300 309.033, 368.667 308.667 C 369.033 308.300, 369.033 307.700, 368.667 307.333 C 368.300 306.967, 368 307.267, 368 308 M 347.583 310.866 C 347.152 311.563, 347.070 312.403, 347.400 312.733 C 348.295 313.628, 349.271 312.312, 348.787 310.862 C 348.449 309.846, 348.213 309.846, 347.583 310.866 M 268.872 316.750 C 267.629 318.336, 267.664 318.371, 269.250 317.128 C 270.212 316.373, 271 315.585, 271 315.378 C 271 314.555, 270.179 315.084, 268.872 316.750 M 309.500 318 C 309.840 318.550, 310.541 319, 311.059 319 C 311.577 319, 312 318.550, 312 318 C 312 317.450, 311.298 317, 310.441 317 C 309.584 317, 309.160 317.450, 309.500 318 M 332 319 C 332 319.733, 332.300 320.033, 332.667 319.667 C 333.033 319.300, 333.033 318.700, 332.667 318.333 C 332.300 317.967, 332 318.267, 332 319 M 167.543 319.931 C 166.878 321.007, 168.835 322.498, 169.733 321.600 C 170.063 321.270, 169.782 321, 169.108 321 C 168.434 321, 168.160 320.550, 168.500 320 C 168.840 319.450, 168.893 319, 168.618 319 C 168.343 319, 167.859 319.419, 167.543 319.931 M 178.813 320.683 C 179.534 320.972, 180.397 320.936, 180.729 320.604 C 181.061 320.272, 180.471 320.036, 179.417 320.079 C 178.252 320.127, 178.015 320.364, 178.813 320.683 M 176.333 322.667 C 176.700 323.033, 177.300 323.033, 177.667 322.667 C 178.033 322.300, 177.733 322, 177 322 C 176.267 322, 175.967 322.300, 176.333 322.667 M 206 325 C 206 325.733, 206.300 326.033, 206.667 325.667 C 207.033 325.300, 207.033 324.700, 206.667 324.333 C 206.300 323.967, 206 324.267, 206 325 M 154.333 327.667 C 154.700 328.033, 155.300 328.033, 155.667 327.667 C 156.033 327.300, 155.733 327, 155 327 C 154.267 327, 153.967 327.300, 154.333 327.667 M 186.333 328.667 C 186.700 329.033, 187.300 329.033, 187.667 328.667 C 188.033 328.300, 187.733 328, 187 328 C 186.267 328, 185.967 328.300, 186.333 328.667 M 274.333 335.667 C 274.700 336.033, 275.300 336.033, 275.667 335.667 C 276.033 335.300, 275.733 335, 275 335 C 274.267 335, 273.967 335.300, 274.333 335.667 M 285 336.059 C 285 336.641, 285.450 336.840, 286 336.500 C 286.550 336.160, 287 335.684, 287 335.441 C 287 335.198, 286.550 335, 286 335 C 285.450 335, 285 335.477, 285 336.059 M 327.333 335.667 C 327.700 336.033, 328.300 336.033, 328.667 335.667 C 329.033 335.300, 328.733 335, 328 335 C 327.267 335, 326.967 335.300, 327.333 335.667 M 149.570 344.887 C 148.889 345.988, 151.438 348.229, 152.342 347.325 C 152.704 346.963, 153 346.067, 153 345.333 C 153 343.844, 150.422 343.508, 149.570 344.887 M 192.667 346.667 C 191.516 347.817, 191.938 349, 193.500 349 C 194.325 349, 195 348.325, 195 347.500 C 195 345.938, 193.817 345.516, 192.667 346.667 M 285.688 346.646 C 284.383 347.950, 285.006 349, 287.083 349 C 288.247 349, 288.992 348.476, 288.771 347.813 C 288.284 346.351, 286.614 345.719, 285.688 346.646 M 310 352 C 310 352.550, 310.450 353, 311 353 C 311.550 353, 312 352.550, 312 352 C 312 351.450, 311.550 351, 311 351 C 310.450 351, 310 351.450, 310 352 M 162 354 C 162 354.550, 162.675 355, 163.500 355 C 164.325 355, 165 354.550, 165 354 C 165 353.450, 164.325 353, 163.500 353 C 162.675 353, 162 353.450, 162 354 M 213 376.927 C 213 378.358, 213.642 379, 215.073 379 C 216.504 379, 217.043 378.461, 216.812 377.261 C 216.310 374.655, 213 374.364, 213 376.927" stroke="none" fill="#0c1f37" fill-rule="evenodd"/>
</svg>